<svg
    id="Слой_1"
    data-name="Слой 1"
    xmlns="http://www.w3.org/2000/svg"
    viewBox="0 0 1920 1080"
>
    <defs>
        <style>
            .cls-1 {
                fill: #f04239;
            }
            .cls-2 {
                fill: #1a7f59;
            }
        </style>
    </defs>
    <g id="back3">
        <rect class="cls-1" x="-8" y="-4.5" width="1936" height="1089" />
        <polygon
            points="1828.65 259.12 1839 400.8 1597.4 397.91 1587.05 149.25 1656.08 149.25 1659.53 198.4 1725.1 198.4 1725.1 253.34 1828.65 259.12"
        />
        <path
            class="cls-2"
            d="M953.88,840.22c-61.3-31.78-51.75-47-112-85.31C760,702.82,733.71,725.3,658.59,678.14s-54.08-73-122.19-110.89c-86.7-48.19-130.15-11.48-193.47-59.71C294.2,470.41,309.83,441,241.1,388.11c-20.31-15.63-70.89-50.9-71.27-51.18L1351,362.52q15.27,324.15,30.55,648.3l-1283-17.06h0L68,362.52h0S131.2,395,169.83,422.23c64.87,45.81,47.56,68.08,101.82,110.9,62.26,49.13,91.71,25.08,173.1,76.77,66.56,42.26,57,64.79,122.19,102.36,63.2,36.43,76,17.48,152.74,51.18,69.18,30.39,135.53,79.51,224,145,25,18.51,55.12,41.56,81.46,34.12,18.78-5.3,33.62-25.54,30.55-42.65C1051.12,874.38,1008.93,868.75,953.88,840.22Z"
        />
        <path
            d="M1410.05,741.25c-45.64,1.37-79.13-8.38-95.78-13.38-29.72-8.92-45-13.49-55.87-26.74-21-25.47-7.56-60.51,0-80.24,7.82-20.42,14-36.49,31.93-46.81,27-15.53,46.14,1.78,95.78-6.69,48.54-8.28,53.81-28.86,87.8-26.74,42.45,2.64,69.42,37,71.84,40.12,31.74,41.65,17,102.4-24,133.73C1490,738.84,1449.44,740.06,1410.05,741.25Z"
        />
    </g>
</svg>
