<svg id="Слой_1" data-name="Слой 1" xmlns="http://www.w3.org/2000/svg" width="42" height="42" viewBox="0 0 62 62">
    <defs>
        <style>
            .cls-1,
            .cls-2 {
                fill: none;
                stroke: #000;
                stroke-miterlimit: 10;}
            .cls-2 {stroke-width: 0.75px;}
        </style>
    </defs>
    <path class="cls-1" d="M61,61H1V1H61Z"/>
    <path class="cls-2" d="M1,1A33.35,33.35,0,0,1,14.4,8.35a28.5,28.5,0,0,1,6.44,9.18c1.56,3.19,4.3,8.78,3.71,16.07a27.27,27.27,0,0,1-8.42,17.73A36.23,36.23,0,0,1,1,59.88"/>
    <path class="cls-1" d="M39.11,24.17a8.18,8.18,0,0,1,1.61-2,7.85,7.85,0,0,1,2.6-1.65,8.87,8.87,0,0,1,4.63-.3,9.76,9.76,0,0,1,4.48,2,7.64,7.64,0,0,1,1.41,1.36,7.42,7.42,0,0,1,1.4,3.72,10.93,10.93,0,0,1-.07,4.49,13.1,13.1,0,0,1-2.32,4.67,16.22,16.22,0,0,1-3,3.48A33.39,33.39,0,0,0,47,42.37a18.25,18.25,0,0,0-1.54,1.77c-2,2.56-1.75,3.27-3.08,4.13a6.28,6.28,0,0,1-3.37.95c-.54,0-2.29,0-3.15-1a3,3,0,0,1-.57-1.54,4.85,4.85,0,0,1,.28-2.9"/>
    <path class="cls-1" d="M41.49,30.67c0-.6.12-1.41.22-2.36.16-1.75.22-2.11.56-2.54a4.29,4.29,0,0,1,1.82-1.24,8.76,8.76,0,0,1,2-.54,7,7,0,0,1,1.48-.17,4.73,4.73,0,0,1,2.38.71,3.81,3.81,0,0,1,1.54,2.06,6.64,6.64,0,0,1,0,4,14.84,14.84,0,0,1-1.26,3.6,15.69,15.69,0,0,1-1.89,3,12.93,12.93,0,0,1-1.41,1.48c-1.23,1.08-1.7,1-2.66,2a1.83,1.83,0,0,1-.63.48,3.39,3.39,0,0,1-1.89-.06A4.83,4.83,0,0,0,39.25,41a3.49,3.49,0,0,1-1.33.47,1.13,1.13,0,0,1-.7-.12c-.17-.11-.36-.39,0-1.83.21-.85.31-.88.63-2s.3-1.3.63-1.65A2.55,2.55,0,0,1,40,35.16a2.44,2.44,0,0,1,.77,0"/><path class="cls-2" d="M43.81,37.76a11.7,11.7,0,0,0,1.68-2.42,10,10,0,0,0,1-2.78,10.09,10.09,0,0,0,.07-3.07,9.78,9.78,0,0,0-.49-2.42,10.21,10.21,0,0,0-1-2.19"/><path class="cls-2" d="M1,50.38l1.17-.78A26.74,26.74,0,0,0,10.22,41a21.61,21.61,0,0,0,3-9.75A19.37,19.37,0,0,0,8.81,17.86,24.2,24.2,0,0,0,1,11.72"/><path class="cls-1" d="M13.31,60.69,13.25,60c0-1.33,0-3.72-.12-4.72a1,1,0,0,0,0-.26c-.08-.29-.28-.76-1.34-1.65-.66-.56-1.05-.76-1.05-1.15a1.07,1.07,0,0,1,.08-.37,2.17,2.17,0,0,1,.56-.76,2.42,2.42,0,0,0,.6-1.35,2,2,0,0,0-.16-1.2,1,1,0,0,0-.09-.13,1.41,1.41,0,0,0-.48-.36,1.9,1.9,0,0,1-1-1.53,1,1,0,0,1,.09-.32,16,16,0,0,0,.59-2,3.64,3.64,0,0,0,0-2.62,3.69,3.69,0,0,0-1.42-1.38c-1.21-.82-1.87-.67-3.27-1.62-.83-.55-1-.87-1-1.11-.11-.43.09-.77.5-1.48l1.21-2.13c.71-1.23.88-1.45,3.25-5.23.17-.28,1.69-2.71,3.1-5.59a5.76,5.76,0,0,0,.71-2.38c0-1-.27-1.29-.57-2.85A17.75,17.75,0,0,1,13,14.65a14.63,14.63,0,0,1,.42-3.21c.94-4.13,2-8.25,2.26-9.27l.3-1"/><path class="cls-2" d="M20.54,1l2.78,2.35A38.84,38.84,0,0,1,33,16.7,36.22,36.22,0,0,1,35.7,30.05a32.91,32.91,0,0,1-3.47,16.27A38.3,38.3,0,0,1,20.59,59.68l-1.23.7L18.19,61"/><path class="cls-2" d="M34,60.63l.71-.75A44.52,44.52,0,0,0,45.11,43.4a38.36,38.36,0,0,0,2-16.48A40.58,40.58,0,0,0,43.37,14.2,53,53,0,0,0,36.69,3.14L35.15,1"/>
    <path class="cls-2" d="M47.48,60.53l.35-.65a51.37,51.37,0,0,0,9.85-26.44A50.14,50.14,0,0,0,55.26,15,54.85,54.85,0,0,0,49.07,2.1L48.37,1"/>
</svg>